<svg width="196" height="97" viewBox="0 0 196 97" fill="none" xmlns="http://www.w3.org/2000/svg">
<g clip-path="url(#clip0_111_393)">
<path d="M23.688 0C36.788 0 47.393 10.606 47.393 23.682C47.393 36.759 36.788 47.364 23.688 47.364C10.606 47.364 0 36.759 0 23.682C0 10.606 10.606 0 23.688 0Z" fill="#141414"/>
<path d="M34.4 31.7L23.852 11L13.304 31.7L11 36.2H16.04L18.344 31.7L23.852 20.9L29.36 31.7L31.664 36.2H36.704L34.4 31.7Z" fill="white"/>
<path d="M73.084 0C86.181 0 96.787 10.61 96.787 23.687C96.787 36.764 86.181 47.369 73.084 47.369C59.999 47.369 49.394 36.763 49.394 23.686C49.394 10.609 59.999 0 73.084 0Z" fill="#141414"/>
<path d="M82.6 21.476C83.284 20.432 83.68 19.172 83.68 17.804C83.68 14.06 80.62 11 76.876 11H61V36.2H78.172C82.6 36.2 86.2 32.6 86.2 28.172C86.2 25.364 84.76 22.916 82.6 21.476ZM65.5 15.5H76.912C78.172 15.5 79.216 16.544 79.216 17.804C79.216 19.064 78.172 20.108 76.912 20.108H65.5V15.5ZM78.172 31.7H65.5V24.608H78.172C80.116 24.608 81.7 26.192 81.7 28.136C81.7 30.08 80.116 31.664 78.172 31.664V31.7Z" fill="white"/>
<path d="M171.869 0C184.969 0 195.574 10.614 195.574 23.69C195.574 36.767 184.969 47.372 171.869 47.372C158.787 47.372 148.181 36.767 148.181 23.69C148.181 10.614 158.787 0 171.869 0Z" fill="#141414"/>
<path d="M178.548 11L171.636 19.964L164.724 11H159.036L168.792 23.636L169.404 24.392V36.2H173.904V24.32L174.444 23.636L184.2 11H178.548ZM159 36.308L159.072 36.236H159V36.308ZM184.2 36.308V36.236H184.164L184.2 36.308Z" fill="white"/>
<path d="M122.47 0C135.575 0 146.181 10.61 146.181 23.687C146.181 36.764 135.576 47.37 122.47 47.37C109.394 47.37 98.787 36.764 98.787 23.687C98.787 10.61 109.394 0 122.47 0Z" fill="#141414"/>
<path d="M110 36.272L110.072 36.2H110V36.272ZM135.2 36.2H135.164L135.2 36.272V36.2ZM129.548 11L122.636 19.964L115.724 11H110.036L119.792 23.636L110.108 36.2H115.796L122.672 27.308L129.548 36.2H135.236L125.516 23.636L135.272 11H129.548Z" fill="white"/>
<path d="M23.688 49.37C36.788 49.37 47.393 59.976 47.393 73.052C47.393 86.129 36.788 96.734 23.688 96.734C10.606 96.734 0 86.129 0 73.052C0 59.976 10.606 49.37 23.688 49.37Z" fill="white"/>
<path d="M34.4 81.07L23.852 60.37L13.304 81.07L11 85.57H16.04L18.344 81.07L23.852 70.27L29.36 81.07L31.664 85.57H36.704L34.4 81.07Z" fill="#141414"/>
<path d="M73.084 49.37C86.181 49.37 96.787 59.98 96.787 73.057C96.787 86.134 86.181 96.739 73.084 96.739C59.999 96.739 49.394 86.133 49.394 73.056C49.394 59.979 59.999 49.37 73.084 49.37Z" fill="white"/>
<path d="M82.6 70.846C83.284 69.802 83.68 68.542 83.68 67.174C83.68 63.43 80.62 60.37 76.876 60.37H61V85.57H78.172C82.6 85.57 86.2 81.97 86.2 77.542C86.2 74.734 84.76 72.286 82.6 70.846ZM65.5 64.87H76.912C78.172 64.87 79.216 65.914 79.216 67.174C79.216 68.434 78.172 69.478 76.912 69.478H65.5V64.87ZM78.172 81.07H65.5V73.978H78.172C80.116 73.978 81.7 75.562 81.7 77.506C81.7 79.45 80.116 81.034 78.172 81.034V81.07Z" fill="#141414"/>
<path d="M171.869 49.37C184.969 49.37 195.574 59.984 195.574 73.06C195.574 86.137 184.969 96.742 171.869 96.742C158.787 96.742 148.181 86.137 148.181 73.06C148.181 59.984 158.787 49.37 171.869 49.37Z" fill="white"/>
<path d="M178.548 60.37L171.636 69.334L164.724 60.37H159.036L168.792 73.006L169.404 73.762V85.57H173.904V73.69L174.444 73.006L184.2 60.37H178.548ZM159 85.678L159.072 85.606H159V85.678ZM184.2 85.678V85.606H184.164L184.2 85.678Z" fill="#141414"/>
<path d="M122.47 49.37C135.575 49.37 146.181 59.98 146.181 73.057C146.181 86.134 135.576 96.74 122.47 96.74C109.394 96.74 98.787 86.134 98.787 73.057C98.787 59.98 109.394 49.37 122.47 49.37Z" fill="white"/>
<path d="M110 85.642L110.072 85.57H110V85.642ZM135.2 85.57H135.164L135.2 85.642V85.57ZM129.548 60.37L122.636 69.334L115.724 60.37H110.036L119.792 73.006L110.108 85.57H115.796L122.672 76.678L129.548 85.57H135.236L125.516 73.006L135.272 60.37H129.548Z" fill="#141414"/>
</g>
<defs>
<clipPath id="clip0_111_393">
<rect width="195.574" height="96.744" fill="white"/>
</clipPath>
</defs>
</svg>
