<svg width="750" height="631" viewBox="0 0 750 631" fill="none" xmlns="http://www.w3.org/2000/svg">
<g clip-path="url(#clip0_111_360)">
<path d="M664.368 213.96C657.648 197.278 643.826 193.083 642.55 191.957C630.849 181.621 640.076 170.743 622.604 161.262C604.323 151.348 550.625 124.265 508.384 129.887C499.159 131.122 480.547 147.495 467.17 147.495C445.305 147.495 375.005 147.495 375.005 147.495C375.005 147.495 304.705 147.495 282.84 147.495C269.463 147.495 250.85 131.121 241.625 129.887C199.377 124.265 145.686 151.348 127.405 161.262C109.933 170.743 119.162 181.621 107.464 191.957C106.183 193.082 92.36 197.278 85.641 213.96C22.889 369.984 -1.74102 469.114 0.0949833 529.129C2.98598 623.545 76.673 630.455 76.673 630.455C113.706 621.838 188.223 501.32 245.208 501.32C276.368 501.32 375.005 501.32 375.005 501.32C375.005 501.32 473.642 501.32 504.802 501.32C561.787 501.32 636.304 621.838 673.34 630.455C673.34 630.455 747.018 623.545 749.903 529.129C751.767 469.114 727.093 369.984 664.368 213.96Z" fill="#CB1719"/>
<path d="M548.358 114.946L598.794 121.795C586.728 4.97399 555.822 10.762 549.08 5.46599C548.678 5.14699 548.275 4.84799 547.869 4.56699C541.453 0.090992 534.303 -0.306008 522.043 0.141992C511.22 0.544992 509.98 11.581 509.861 15.332V16.559C509.861 16.559 512.761 57.275 509.861 109.653C519.648 111.909 547.579 114.864 548.358 114.946Z" fill="#CB1719"/>
<path d="M201.676 114.95C201.676 114.95 230.289 111.941 240.215 109.652C237.314 57.274 240.215 16.558 240.215 16.558V15.331C240.091 11.58 238.855 0.543985 228.022 0.140985C215.773 -0.307015 208.624 0.0899849 202.207 4.56598C201.8 4.84698 201.396 5.14598 200.996 5.46498C194.24 10.761 163.348 4.97298 151.281 121.794L201.676 114.948V114.95V114.95Z" fill="#CB1719"/>
<path d="M152.606 313.4V347H169.406C174.014 347 178.19 345.128 181.214 342.056C181.55 341.72 181.886 341.384 182.174 341.048C184.67 338.12 186.158 334.328 186.158 330.2C186.158 320.936 178.622 313.448 169.358 313.448L152.606 313.4ZM158.558 319.448H169.358C175.31 319.448 180.158 324.296 180.158 330.248C180.158 336.2 175.31 341.048 169.358 341.048H158.558V319.448ZM199.397 347V313.4H193.397V347H199.397ZM238.354 322.664V322.472C238.354 317.48 234.274 313.4 229.282 313.4H215.65C210.658 313.4 206.626 317.48 206.626 322.472V322.664C206.626 324.584 207.202 326.36 208.21 327.8C208.546 328.328 208.93 328.808 209.362 329.24C210.994 330.824 213.202 331.784 215.65 331.784H227.746C230.29 331.784 232.402 333.848 232.402 336.392C232.402 338.936 230.29 341 227.746 341H217.234C214.69 341 212.626 338.936 212.626 336.392H206.626C206.626 342.248 211.378 347 217.234 347H227.746C233.602 347 238.354 342.248 238.354 336.392C238.354 333.848 237.442 331.496 235.954 329.672C235.81 329.528 235.714 329.384 235.57 329.24C233.65 327.128 230.866 325.784 227.746 325.784H215.65C213.97 325.784 212.578 324.392 212.578 322.712V322.52C212.578 320.84 213.97 319.448 215.65 319.448H229.282C230.962 319.448 232.354 320.84 232.354 322.52V322.712L238.354 322.664ZM261.861 319.4H278.661V313.4H261.861C252.597 313.4 245.061 320.936 245.061 330.2C245.061 339.464 252.597 347 261.861 347H278.661V341H261.861C255.909 341 251.061 336.152 251.061 330.2C251.061 324.248 255.909 319.4 261.861 319.4ZM299.353 313.4C290.089 313.4 282.553 320.936 282.553 330.2C282.553 339.464 290.089 347 299.353 347C308.617 347 316.153 339.464 316.153 330.2C316.153 320.936 308.617 313.4 299.353 313.4ZM299.353 341C293.401 341 288.553 336.152 288.553 330.2C288.553 324.248 293.401 319.4 299.353 319.4C305.305 319.4 310.153 324.248 310.153 330.2C310.153 336.152 305.305 341 299.353 341ZM349.753 313.4V334.808L328.153 318.152L322.153 313.544V347.048H328.153V325.784L349.753 342.44L355.753 347.048V313.448L349.753 313.4ZM390.544 313.4V334.808L368.944 318.152L362.944 313.544V347.048H368.944V325.784L390.544 342.44L396.544 347.048V313.448L390.544 313.4ZM412.806 319.4H437.334V313.4H412.806C407.814 313.4 403.782 317.48 403.782 322.472V337.928C403.782 342.92 407.814 347 412.806 347H437.334V341H412.806C411.126 341 409.734 339.608 409.734 337.928V331.592H431.334V325.592H409.734V322.472C409.734 320.792 411.126 319.4 412.806 319.4ZM458.22 319.4H475.02V313.4H458.22C448.956 313.4 441.42 320.936 441.42 330.2C441.42 339.464 448.956 347 458.22 347H475.02V341H458.22C452.268 341 447.42 336.152 447.42 330.2C447.42 324.248 452.268 319.4 458.22 319.4ZM482.222 313.448V319.448H495.998V347.048H501.998V319.448H515.774V313.448H482.222ZM532.084 319.4H556.612V313.4H532.084C527.092 313.4 523.06 317.48 523.06 322.472V337.928C523.06 342.92 527.092 347 532.084 347H556.612V341H532.084C530.404 341 529.012 339.608 529.012 337.928V331.592H550.612V325.592H529.012V322.472C529.012 320.792 530.404 319.4 532.084 319.4ZM563.803 313.4V347H580.603C585.211 347 589.387 345.128 592.411 342.056C592.747 341.72 593.083 341.384 593.371 341.048C595.867 338.12 597.355 334.328 597.355 330.2C597.355 320.936 589.819 313.448 580.555 313.448L563.803 313.4ZM569.755 319.448H580.555C586.507 319.448 591.355 324.296 591.355 330.248C591.355 336.2 586.507 341.048 580.555 341.048H569.755V319.448Z" fill="white"/>
</g>
<defs>
<clipPath id="clip0_111_360">
<rect width="750" height="630.455" fill="white"/>
</clipPath>
</defs>
</svg>
