<svg width="45" height="45" viewBox="0 0 45 45" fill="none" xmlns="http://www.w3.org/2000/svg">
<path d="M21.5 25.5C21.5 25.87 21.4 26.2 21.22 26.5C20.88 25.91 20.24 25.5 19.5 25.5C18.76 25.5 18.12 25.91 17.78 26.5C17.61 26.2 17.5 25.87 17.5 25.5C17.5 24.4 18.4 23.5 19.5 23.5C20.6 23.5 21.5 24.4 21.5 25.5ZM34 25V28C34 28.55 33.55 29 33 29H32V30C32 31.11 31.11 32 30 32H16C15.4696 32 14.9609 31.7893 14.5858 31.4142C14.2107 31.0391 14 30.5304 14 30V29H13C12.45 29 12 28.55 12 28V25C12 24.45 12.45 24 13 24H14C14 20.13 17.13 17 21 17H22V15.73C21.4 15.39 21 14.74 21 14C21 12.9 21.9 12 23 12C24.1 12 25 12.9 25 14C25 14.74 24.6 15.39 24 15.73V17H25C28.87 17 32 20.13 32 24H33C33.55 24 34 24.45 34 25ZM32 26H30V24C30 21.24 27.76 19 25 19H21C18.24 19 16 21.24 16 24V26H14V27H16V30H30V27H32V26ZM26.5 23.5C25.4 23.5 24.5 24.4 24.5 25.5C24.5 25.87 24.61 26.2 24.78 26.5C25.12 25.91 25.76 25.5 26.5 25.5C27.24 25.5 27.88 25.91 28.22 26.5C28.4 26.2 28.5 25.87 28.5 25.5C28.5 24.9696 28.2893 24.4609 27.9142 24.0858C27.5391 23.7107 27.0304 23.5 26.5 23.5V23.5Z" fill="black"/>
</svg>
